<?xml version="1.0" standalone="no"?>
<!DOCTYPE svg PUBLIC "-//W3C//DTD SVG 20010904//EN"
 "http://www.w3.org/TR/2001/REC-SVG-20010904/DTD/svg10.dtd">
<svg version="1.0" xmlns="http://www.w3.org/2000/svg"
 width="771.000000pt" height="242.000000pt" viewBox="0 0 771.000000 242.000000"
 preserveAspectRatio="xMidYMid meet">

<g transform="translate(0.000000,242.000000) scale(0.100000,-0.100000)"
fill="#000000" stroke="none">
<path d="M628 2396 c-305 -54 -517 -233 -594 -501 -14 -50 -18 -117 -21 -390
-5 -359 1 -440 44 -559 63 -176 172 -294 348 -376 151 -71 350 -100 548 -81
327 32 546 161 657 386 64 130 72 171 77 430 5 225 5 231 -17 258 l-21 27
-365 0 c-351 0 -365 -1 -384 -20 -18 -18 -20 -33 -20 -149 0 -128 0 -130 26
-150 24 -19 40 -21 162 -21 l135 0 -6 -72 c-13 -145 -56 -216 -162 -269 -53
-26 -80 -32 -153 -37 -181 -10 -296 56 -348 198 -26 72 -39 349 -27 557 10
169 11 177 44 241 56 110 143 156 294 156 140 0 228 -47 296 -157 17 -28 37
-55 43 -59 6 -4 113 -8 238 -8 268 0 264 -1 254 89 -25 215 -251 418 -548 492
-108 27 -385 35 -500 15z"/>
<path d="M4967 2392 c-14 -16 -17 -52 -19 -253 l-3 -234 -120 -3 c-161 -4
-155 3 -155 -172 0 -182 -7 -174 154 -178 l126 -4 0 -308 c0 -190 4 -329 11
-362 28 -133 111 -248 216 -301 97 -50 153 -59 384 -64 l216 -5 21 27 c20 25
22 40 22 162 0 129 -1 135 -25 158 -23 24 -29 25 -162 25 -119 0 -142 3 -170
20 -65 39 -68 54 -71 368 l-3 282 179 0 c239 0 227 -9 227 173 0 187 13 177
-222 177 l-183 0 0 233 c0 194 -3 236 -16 255 -15 21 -20 22 -203 22 -169 0
-190 -2 -204 -18z"/>
<path d="M1987 1882 c-15 -17 -17 -78 -17 -675 0 -644 0 -657 20 -677 19 -19
33 -20 214 -20 l195 0 20 26 c20 26 21 37 21 411 0 412 2 426 53 481 48 52 69
57 275 62 177 5 195 7 208 24 11 15 14 58 14 186 0 210 7 200 -151 200 -171 0
-281 -36 -374 -121 -23 -21 -45 -39 -49 -39 -3 0 -6 29 -6 63 0 97 1 97 -222
97 -166 0 -187 -2 -201 -18z"/>
<path d="M3107 1882 c-10 -10 -17 -28 -17 -39 0 -12 115 -293 256 -625 141
-331 256 -612 256 -623 0 -11 -48 -134 -106 -272 -58 -139 -106 -259 -106
-268 0 -8 9 -24 20 -35 18 -18 33 -20 189 -20 162 0 171 1 195 23 17 15 144
299 411 915 212 492 385 902 385 911 0 10 -8 25 -18 34 -16 15 -45 17 -199 17
-173 0 -180 -1 -200 -22 -12 -13 -92 -200 -179 -417 -113 -283 -159 -389 -165
-375 -132 347 -313 792 -326 801 -12 9 -69 13 -198 13 -164 0 -184 -2 -198
-18z"/>
<path d="M6544 1007 c-2 -7 -3 -120 -2 -252 l3 -240 60 0 60 0 5 123 c5 116 7
125 29 144 25 19 64 18 86 -3 6 -6 12 -67 15 -137 l5 -127 60 0 60 0 0 140 c0
119 -3 145 -18 168 -42 65 -129 85 -200 47 l-37 -20 0 85 0 85 -60 0 c-40 0
-62 -4 -66 -13z"/>
<path d="M7478 953 l-3 -68 -38 -3 -38 -3 3 -42 c3 -41 4 -42 41 -45 l37 -3 0
-95 c0 -148 27 -179 154 -179 l71 0 0 45 0 45 -48 3 c-58 4 -67 20 -67 118 l0
64 55 0 55 0 0 44 0 45 -52 3 -53 3 -3 68 -3 67 -54 0 -54 0 -3 -67z"/>
<path d="M6191 868 c-67 -35 -85 -66 -89 -152 -5 -97 19 -156 75 -184 91 -46
190 -35 254 29 25 25 39 48 39 64 0 24 -3 25 -57 25 -50 0 -60 -3 -78 -26 -25
-31 -68 -35 -93 -10 -12 12 -17 34 -17 80 0 71 20 106 61 106 21 0 29 -6 62
-45 8 -10 30 -15 63 -15 60 0 71 17 44 67 -27 50 -75 75 -153 80 -56 4 -74 1
-111 -19z"/>
<path d="M7093 875 c-41 -18 -73 -50 -73 -75 0 -17 7 -20 48 -20 27 0 57 6 68
15 38 29 94 13 94 -26 0 -17 -9 -21 -95 -35 -89 -15 -145 -62 -145 -120 0 -93
144 -146 225 -82 25 19 25 19 25 -1 0 -19 6 -21 55 -21 l55 0 0 149 c0 137 -2
150 -22 176 -12 15 -36 34 -54 41 -42 18 -140 17 -181 -1z m137 -216 c0 -52
-48 -87 -95 -69 -48 18 -26 65 38 80 51 12 57 11 57 -11z"/>
<path d="M5914 627 c-3 -8 -4 -36 -2 -63 l3 -49 60 0 60 0 0 60 0 60 -58 3
c-42 2 -59 -1 -63 -11z"/>
</g>
</svg>
